<?xml version="1.0" standalone="no"?>
<!DOCTYPE svg PUBLIC "-//W3C//DTD SVG 20010904//EN"
 "http://www.w3.org/TR/2001/REC-SVG-20010904/DTD/svg10.dtd">
<svg version="1.0" xmlns="http://www.w3.org/2000/svg"
 width="106.000000pt" height="106.000000pt" viewBox="0 0 106.000000 106.000000"
 preserveAspectRatio="xMidYMid meet">
<metadata>
Created by potrace 1.11, written by Peter Selinger 2001-2013
</metadata>
<g transform="translate(0.000000,106.000000) scale(0.100000,-0.100000)"
fill="#000000" stroke="none">
<path d="M516 981 c-4 -6 -5 -11 -2 -11 2 0 -2 -26 -9 -57 -7 -32 -11 -61 -9
-65 3 -5 0 -8 -6 -8 -6 0 -8 -4 -5 -10 3 -5 3 -10 -2 -10 -4 0 -26 34 -48 75
-22 41 -43 75 -48 75 -7 0 -1 -112 9 -157 7 -36 -16 -27 -80 32 -33 30 -63 52
-66 50 -4 -2 10 -39 31 -82 25 -52 33 -79 25 -81 -7 -1 -43 11 -81 28 -37 17
-70 28 -73 25 -3 -3 8 -20 25 -38 60 -65 73 -81 73 -94 0 -8 -5 -11 -10 -8
-17 11 -150 14 -150 4 0 -5 4 -9 9 -9 14 0 116 -64 119 -75 1 -5 -1 -10 -5
-11 -34 -3 -134 -28 -138 -34 -3 -4 10 -11 28 -15 17 -4 37 -9 42 -10 6 -2 23
-6 39 -9 51 -10 48 -21 -19 -57 -35 -18 -67 -39 -69 -46 -5 -11 1 -11 116 2
21 2 39 1 42 -3 2 -4 -15 -28 -37 -53 -53 -59 -78 -89 -73 -89 2 0 28 11 57
23 91 40 119 50 119 43 0 -2 -6 -16 -14 -32 -8 -16 -25 -51 -37 -79 -13 -27
-25 -54 -27 -59 -6 -12 42 24 98 73 48 43 64 44 56 3 -12 -61 -16 -142 -8
-142 4 0 19 19 32 43 12 23 32 58 44 77 l20 34 8 -34 c4 -19 10 -55 14 -80 5
-43 18 -69 29 -59 2 3 10 40 17 82 7 46 16 76 22 74 10 -3 34 -41 72 -115 12
-23 19 -30 25 -21 4 7 6 16 4 20 -8 12 -17 159 -10 159 4 0 21 -13 38 -29 78
-72 99 -91 102 -91 6 0 -2 26 -24 75 -13 28 -23 55 -24 60 -1 6 -6 13 -11 16
-16 12 4 29 22 19 48 -26 132 -58 136 -52 2 4 -20 33 -50 66 -30 32 -54 62
-54 66 0 4 15 6 33 5 98 -9 116 -9 116 0 -1 6 -17 19 -37 30 -21 11 -39 23
-42 26 -3 3 -13 8 -22 12 -29 10 -21 24 20 33 20 4 40 8 45 9 4 2 15 3 25 4
10 0 26 7 36 14 16 11 15 13 -10 15 -14 1 -50 9 -78 17 -28 9 -52 15 -53 15
-17 -1 -8 6 50 40 38 22 73 40 78 40 6 0 8 4 5 9 -6 9 -139 6 -155 -3 -24 -15
0 29 41 74 55 61 69 88 35 66 -12 -7 -44 -22 -72 -32 -27 -9 -56 -22 -62 -27
-20 -14 -16 4 13 69 43 97 46 106 30 97 -8 -4 -37 -29 -65 -55 -76 -70 -74
-70 -67 15 3 42 6 80 7 84 5 27 -1 34 -16 19 -8 -8 -15 -17 -15 -20 0 -4 -14
-31 -32 -62 -34 -61 -41 -59 -53 16 -12 76 -14 83 -24 93 -5 5 -11 4 -15 -2z
m-1 -191 c-3 -5 -12 -10 -18 -10 -7 0 -6 4 3 10 19 12 23 12 15 0z m132 -27
c58 -29 85 -52 62 -54 -8 -1 -23 -2 -34 -3 -11 0 -20 -7 -21 -13 -1 -7 -2 -20
-3 -29 -1 -11 -5 -14 -13 -7 -7 5 -20 9 -28 8 -8 -1 -23 -3 -32 -3 -14 -2 -18
-11 -18 -37 0 -19 3 -36 8 -36 4 -1 22 -2 40 -3 31 -2 35 1 35 36 0 13 8 16
41 15 39 -2 41 0 40 26 -1 15 4 27 10 27 12 0 27 -30 48 -95 23 -70 13 -150
-28 -222 -24 -42 -92 -104 -129 -117 -37 -14 -116 -23 -121 -15 -3 5 -1 9 5 9
5 0 9 13 9 29 -1 22 -7 30 -24 34 -24 4 -34 -9 -34 -43 0 -13 -7 -18 -20 -17
-11 1 -20 5 -20 10 0 5 7 6 16 3 13 -5 15 -1 9 21 -4 16 -7 28 -8 28 -1 0 -12
5 -24 12 -28 16 -38 -5 -17 -36 10 -13 11 -21 4 -21 -17 0 -35 22 -37 45 -2
23 -31 124 -32 112 -1 -5 -7 -5 -13 0 -7 4 -21 6 -30 5 -11 -2 -18 3 -18 14 0
11 4 14 13 7 6 -5 21 -9 32 -9 15 1 20 8 20 29 1 15 -2 28 -5 28 -28 7 -56 5
-62 -5 -5 -6 -8 -2 -8 11 0 18 5 22 23 19 12 -2 29 0 37 5 21 10 20 65 0 61
-13 -2 -13 0 0 10 8 7 21 25 27 40 9 21 9 27 -1 31 -8 3 -18 1 -24 -5 -22 -22
-19 9 4 35 13 16 24 24 24 18 0 -5 -5 -13 -10 -16 -6 -4 -8 -11 -4 -16 4 -6
14 -3 25 7 14 12 16 21 9 29 -12 15 38 51 82 59 24 4 26 2 16 -13 -17 -28 -3
-51 32 -51 28 0 31 3 30 28 -1 15 -2 33 -1 40 1 18 52 7 118 -25z m-350 -168
c0 -8 -4 -12 -8 -9 -4 2 -12 -4 -18 -13 -14 -23 -14 -7 -1 18 13 22 27 25 27
4z m43 -253 c-7 -3 -7 -9 2 -20 9 -12 6 -11 -10 2 -12 11 -22 25 -22 33 0 7
-4 13 -10 13 -5 0 -10 5 -10 10 0 6 14 0 31 -12 16 -12 25 -24 19 -26z"/>
<path d="M402 747 c-21 -22 -18 -43 6 -42 16 0 42 33 42 52 0 20 -24 15 -48
-10z"/>
<path d="M566 755 c-5 -14 17 -45 33 -45 5 0 14 6 20 14 9 11 8 18 -4 30 -20
20 -41 21 -49 1z"/>
<path d="M469 707 c0 -1 -2 -15 -4 -32 -6 -45 6 -54 66 -46 4 1 6 17 6 36 -1
24 -6 35 -17 36 -8 0 -23 2 -32 4 -10 2 -18 3 -19 2z"/>
<path d="M370 670 c-6 -11 -7 -20 -3 -20 4 0 1 -4 -6 -9 -12 -8 -9 -11 12 -16
33 -9 52 5 55 39 1 21 -3 26 -23 26 -14 0 -29 -8 -35 -20z"/>
<path d="M360 596 c-15 -15 -12 -63 4 -69 8 -3 23 -3 34 -1 18 5 21 26 13 76
-2 10 -40 5 -51 -6z"/>
<path d="M438 603 c-2 -4 -3 -21 -3 -38 0 -28 3 -30 42 -33 l41 -3 -2 38 c-2
35 -4 37 -38 41 -20 2 -38 0 -40 -5z"/>
<path d="M712 596 c-19 -10 -20 -14 -9 -29 22 -32 60 -3 39 30 -5 8 -13 8 -30
-1z"/>
<path d="M608 545 c-3 -4 -14 -8 -25 -9 -14 -2 -18 -12 -18 -42 0 -38 1 -39
38 -40 20 -1 37 1 38 5 0 3 2 16 5 28 4 22 -26 69 -38 58z"/>
<path d="M677 506 c-7 -18 18 -40 37 -33 8 3 13 14 12 24 -3 22 -41 30 -49 9z"/>
<path d="M352 470 c3 -31 6 -35 35 -38 34 -3 33 -6 24 71 -1 4 -15 6 -31 5
-29 -2 -31 -5 -28 -38z"/>
<path d="M464 502 c-6 -4 -11 -23 -10 -42 1 -32 4 -35 31 -35 17 0 35 3 41 7
11 8 11 55 -1 66 -9 10 -49 12 -61 4z"/>
<path d="M370 410 c0 -6 -4 -8 -10 -5 -5 3 -10 1 -10 -4 0 -6 5 -11 10 -11 6
0 10 -8 10 -19 0 -16 34 -35 50 -28 5 2 2 59 -3 63 -12 10 -47 13 -47 4z"/>
<path d="M627 400 c-10 -40 2 -59 38 -57 28 2 34 6 38 30 2 20 -2 31 -14 38
-29 15 -56 10 -62 -11z"/>
<path d="M496 401 c-23 -5 -30 -11 -30 -33 -1 -16 1 -29 4 -29 3 -1 20 -3 38
-5 31 -4 32 -2 32 31 0 39 -5 43 -44 36z"/>
<path d="M553 321 c-16 -12 -12 -51 5 -60 24 -13 55 11 50 40 -3 22 -36 34
-55 20z"/>
</g>
</svg>
